# xmcd CD database file
#
# Track frame offsets:
#	150
#	35908
#	57605
#	80943
#	91760
#	111703
#	126793
#	152105
#	169590
#	184820
#	199388
#	216818
#	235230
#	249798
#	261023
#	270000
#
# Disc length: 3805 seconds
#
# Revision: 0
# Processed by: cddbd v1.5.1PL0 Copyright (c) Steve Scherf et al.
# Submitted via: CDex 1.51
#
DISCID=e60edb10
DTITLE=Various Artist - 実用シリーズ　寿　結婚
DYEAR=1900
DGENRE=Instrumental
TTITLE0=ロマンス　ヘ長調　作品50
TTITLE1=結婚の合唱
TTITLE2=結婚行進曲
TTITLE3=花嫁人形
TTITLE4=アベ・マリア
TTITLE5=越天楽
TTITLE6=高砂
TTITLE7=長持歌
TTITLE8=黒田節
TTITLE9=愛情物語
TTITLE10=ラバース・コンチェルト
TTITLE11=ハワイの結婚の歌
TTITLE12=白い恋人たち〜恋は水色〜
TTITLE13=かあさんの歌
TTITLE14=ふるさと
TTITLE15=愛の賛歌
EXTD=
EXTT0=
EXTT1=
EXTT2=
EXTT3=
EXTT4=
EXTT5=
EXTT6=
EXTT7=
EXTT8=
EXTT9=
EXTT10=
EXTT11=
EXTT12=
EXTT13=
EXTT14=
EXTT15=
PLAYORDER=
